<?xml version="1.0" encoding="UTF-8"?> <svg xmlns="http://www.w3.org/2000/svg" viewBox="0 0 765.1 218.6" width="765.1" height="218.6" style="enable-background:new 0 0 691.1 250.8;"><defs><style type="text/css"> .st0{fill:#FF8200;} .st1{fill:#FFFFFF;} .st2{display:none;fill:#FFFFFF;} .st3{fill:#3D3935;} </style></defs><rect id="Orange_Box" class="st0" width="218.6" height="218.6"></rect><g id="SDA_Flame" transform="matrix(1, 0, 0, 1, -20, -16)"><path class="st1" d="M144.6,128.1c-6.6,6.6-9.8,9.7-11.4,17.7c-0.1,0.6-0.8,0.6-0.8,0V136c0-6.3,5.6-12,12.2-18.6l5.3-5.3 c7.5-7.5,9.3-16.2,3.3-21.3c-0.5-0.4-0.2-1,0.4-0.7c7.4,3.4,13.3,15.7,0.6,28.4L144.6,128.1z M132.4,153.2v9.8c0,0.6,0.7,0.6,0.8,0 c1.6-8,4.8-11.2,11.4-17.7l10.4-10.4c12.7-12.7,14.9-25,8.5-32.9c-0.4-0.5-0.9-0.2-0.6,0.4c4.3,9.7-6,19.9-10.9,24.8l-7.4,7.4 C138,141.2,132.4,146.9,132.4,153.2 M104.2,121.6c-12.7,12.7-6.9,25,0.5,28.4c0.7,0.3,0.9-0.2,0.4-0.7c-6-5.2-4.1-13.8,3.3-21.3 l21.1-21.2c6.6-6.6,12.2-12.4,12.2-18.6v-9.8c0-0.6-0.7-0.6-0.8,0c-1.6,8-4.8,11.1-11.4,17.7L104.2,121.6z M141.9,71v-9.8 c0-0.6-0.7-0.6-0.8,0c-1.6,8-4.8,11.2-11.4,17.7l-26.2,26.2c-12.7,12.7-14.9,25-8.5,33c0.4,0.5,0.9,0.2,0.6-0.4 c-4.3-9.7,6-19.9,10.9-24.8l23.2-23.2C136.3,83,141.9,77.3,141.9,71 M100.7,90.7c-10.9,10.9-12.5,22.5-10.1,30.1 c0.2,0.6,0.8,0.7,0.7,0c-0.1-6.3,1.8-11.8,13.4-23.4l25-25c6.6-6.6,12.2-12.4,12.2-18.6v-9.8c0-0.6-0.7-0.6-0.8,0 c-1.6,8-4.8,11.1-11.4,17.7L100.7,90.7z M116,170c-0.2,0-0.4-0.2-0.4-0.4v-5.7c0-0.2,0.2-0.4,0.4-0.4h9.6c0.2,0,0.4-0.2,0.4-0.4 c0-5.1-3.9-8.5-19.2-5.9l-33.2,5.7c0,0-25.3,25.3-25.5,25.5c-0.3,0.4-0.1,0.9,0.5,0.9c0.5,0,55.2-9.5,55.2-9.5 c12.6-2.1,19.4,3.9,21.5,9.5c0.2,0.5,0.8,0.4,0.8-0.1v-18.9c0-0.2-0.2-0.4-0.4-0.4H116z M155.6,157.9l-11,11 c-6.6,6.6-12.2,12.4-12.2,18.6l0,1.7c0,0.5,0.6,0.5,0.8,0.1c2.1-5.6,8.9-11.6,21.5-9.5c0,0,54.8,9.5,55.2,9.5 c0.5,0,0.8-0.5,0.5-0.9c-0.2-0.2-25.5-25.5-25.5-25.5L155.6,157.9z M167.9,119.2c-0.2-0.6-0.8-0.7-0.7,0 c0.1,6.3-1.8,11.8-13.4,23.4l-9.2,9.2c-4.2,4.2-7.9,8-10.1,11.8h9c0.4-0.4,0.7-0.7,1.1-1.1l13.1-13.2 C168.7,138.3,170.2,126.7,167.9,119.2 M132.4,180.1c0,0.6,0.7,0.6,0.8,0c0.9-4.4,2.3-7.3,4.4-10.2l-4.8,0c-0.2,0-0.4,0.2-0.4,0.4 V180.1z"></path><path id="_xA9_" class="st2" d="M203.7,170.7c0.5,0,0.9-0.3,0.9-0.8c0-0.5-0.3-0.7-0.9-0.7h-0.5v1.5H203.7z M202.4,168.5h1.3 c1.2,0,1.7,0.5,1.7,1.4c0,0.6-0.4,1-0.8,1.2l1.2,2h-0.9l-1.1-1.8h-0.6v1.8h-0.8V168.5z M207.1,170.8c0-1.8-1.3-3.3-3.3-3.3 c-1.9,0-3.3,1.4-3.3,3.3c0,1.8,1.3,3.3,3.3,3.3C205.6,174.1,207.1,172.8,207.1,170.8 M200,170.8c0-2.3,1.6-3.9,3.9-3.9 c2.2,0,3.9,1.6,3.9,3.9c0,2.2-1.6,3.9-3.9,3.9C201.5,174.7,200,173.1,200,170.8"></path><g id="TM"><polygon class="st1" points="203.8,168.7 202.3,168.7 202.3,168 206.2,168 206.2,168.7 204.7,168.7 204.7,172.9 203.8,172.9 	"></polygon><polygon class="st1" points="206.7,168 207.9,168 209.4,171.9 210.8,168 212.1,168 212.1,172.9 211.2,172.9 211.2,170.1 &#10;&#9;&#9;&#9;211.2,169.1 211.1,169.1 209.7,172.9 209,172.9 207.6,169.1 207.5,169.1 207.5,170 207.5,172.9 206.7,172.9 	"></polygon></g></g><rect id="Grey_Box" x="218.6" class="st3" width="546.5" height="218.6"></rect><path id="Adventist" class="st1" d="M 640.9 96.2 C 637.3 96.2 634.7 93.9 634.7 89.1 L 634.7 66.2 L 646.1 66.2 L 646.1 61.2 L 634.7 61.2 L 634.7 52.1 L 628.2 54.5 L 628.2 89.2 C 628.2 98.8 633.6 101.4 639.8 101.4 C 642.8 101.4 645.6 100.7 647 99.8 L 645.2 95.2 C 644.4 95.7 642.4 96.2 640.9 96.2 M 620.3 89.8 C 620.3 83.5 615.9 80.9 608.4 78.1 C 600.8 75.2 598.2 73.9 598.2 70.6 C 598.2 67.6 601.1 65.8 606.4 65.8 C 610.2 65.8 614.1 66.9 617.5 68.4 L 619.5 63.2 C 615.8 61.6 611.7 60.5 606.9 60.5 C 598 60.5 592.1 64.3 592.1 71 C 592.1 77.5 596.7 79.9 604.3 82.8 C 612 85.8 614 87.5 614 90.5 C 614 94 611.2 96.3 604.6 96.3 C 600.8 96.3 596.6 95.1 594 94 L 592.1 99 C 595.1 100.6 599 101.5 604.5 101.5 C 614.2 101.5 620.3 97.5 620.3 89.8 M 580.3 46.4 C 578.2 46.4 576.5 47.7 576.5 50.5 C 576.5 53.3 578.2 54.6 580.3 54.6 C 582.3 54.6 584.1 53.3 584.1 50.5 C 584 47.6 582.3 46.4 580.3 46.4 M 577 100.7 L 583.5 100.7 L 583.5 61.2 L 577 61.2 L 577 100.7 Z M 565 96.2 C 561.4 96.2 558.8 93.9 558.8 89.1 L 558.8 66.2 L 570.2 66.2 L 570.2 61.2 L 558.8 61.2 L 558.8 52.1 L 552.3 54.5 L 552.3 89.2 C 552.3 98.8 557.7 101.4 563.9 101.4 C 566.9 101.4 569.7 100.7 571.1 99.8 L 569.3 95.2 C 568.5 95.7 566.5 96.2 565 96.2 M 528.6 60.5 C 523.6 60.5 518.7 62.5 516.1 66.6 L 515.7 66.6 L 514.7 61.2 L 509.5 61.2 L 509.5 100.8 L 516 100.8 L 516 80.2 C 516 71 518.8 65.9 527.6 65.9 C 533.7 65.9 536.5 69.1 536.5 75.4 L 536.5 100.7 L 542.9 100.7 L 542.9 75 C 543 64.8 538.1 60.5 528.6 60.5 M 484.7 60.5 C 474.2 60.5 467.2 68.3 467.2 81.3 C 467.2 94.5 474.9 101.5 486.2 101.5 C 491.6 101.5 495.1 100.7 499.2 98.9 L 497.4 94 C 494.3 95.2 490.4 95.9 486.6 95.9 C 478.7 95.9 474.2 91.1 474 82.2 L 501 82.2 L 501 78.3 C 501 67.5 494.8 60.5 484.7 60.5 M 484.7 65.8 C 491.3 65.8 494.2 70.4 494.3 77.1 L 474.2 77.1 C 474.8 70 478.5 65.8 484.7 65.8 M 449.6 100.7 L 464.7 61.1 L 457.8 61.1 L 449.4 84.4 C 448.3 87.6 446.6 92.4 446.1 94.9 L 445.8 94.9 C 445.4 92.5 443.8 87.7 442.6 84.4 L 434.2 61.1 L 427.3 61.1 L 442.3 100.7 L 449.6 100.7 Z M 402.8 101.5 C 409 101.5 412.8 98.8 415.1 95.4 L 415.4 95.4 L 416.4 100.7 L 421.6 100.7 L 421.6 44.7 L 415.1 47.2 L 415.1 60.5 C 415.1 62 415.4 65.1 415.5 66.3 L 415.1 66.3 C 412.7 63.1 409 60.5 402.9 60.5 C 393.1 60.5 386.6 67.5 386.6 81.1 C 386.6 94.6 393 101.5 402.8 101.5 M 403.9 96.1 C 396.8 96.1 393.3 90.6 393.3 81.2 C 393.3 71.8 396.8 65.9 403.8 65.9 C 412.6 65.9 415.2 71.4 415.2 81.2 L 415.2 82.4 C 415.2 91.5 412.2 96.1 403.9 96.1 M 383.2 100.7 L 362.7 47.8 L 356.7 47.8 L 336.1 100.7 L 342.8 100.7 L 349.1 84.4 L 370 84.4 L 376.3 100.7 L 383.2 100.7 Z M 351.3 78.5 L 357.3 62.6 C 358 60.9 358.8 57.7 359.6 54.7 C 360.1 56.5 361.7 61.4 362.1 62.6 L 368 78.5 L 351.3 78.5 Z"></path><path d="M 318.161 126.507 L 318.161 173.497 L 324.821 173.497 L 324.821 126.507 L 341.251 126.507 L 341.251 120.657 L 303.881 120.657 L 301.661 126.507 L 318.161 126.507 ZM 362.114 138.417 C 368.704 138.417 371.664 143.007 371.734 149.747 L 351.534 149.747 C 352.204 142.637 355.904 138.417 362.114 138.417 Z M 362.194 133.097 C 351.684 133.097 344.654 140.937 344.654 153.957 C 344.654 167.207 352.424 174.237 363.744 174.237 C 369.144 174.237 372.704 173.427 376.774 171.647 L 374.924 166.767 C 371.814 167.947 367.894 168.687 364.044 168.687 C 356.124 168.687 351.614 163.877 351.384 154.927 L 378.544 154.927 L 378.544 150.997 C 378.544 140.197 372.334 133.097 362.194 133.097 ZM 403.038 174.237 C 407.548 174.237 411.548 173.277 413.768 171.867 L 411.768 166.687 C 409.178 167.877 406.298 168.617 402.968 168.617 C 395.488 168.617 391.638 163.357 391.638 153.817 C 391.638 143.897 395.418 138.787 403.338 138.787 C 406.068 138.787 409.548 139.757 411.918 140.637 L 413.988 135.237 C 411.618 134.057 407.478 133.097 403.478 133.097 C 392.828 133.097 384.908 139.237 384.908 153.887 C 384.908 167.947 392.458 174.237 403.038 174.237 ZM 421.167 119.697 L 421.167 173.497 L 427.677 173.497 L 427.677 152.997 C 427.677 143.747 430.417 138.567 439.297 138.567 C 445.367 138.567 448.177 141.747 448.177 148.117 L 448.177 173.497 L 454.617 173.497 L 454.617 147.667 C 454.617 137.537 449.727 133.167 440.107 133.167 C 435.007 133.167 430.267 135.237 427.757 139.307 L 427.307 139.307 C 427.527 137.757 427.677 135.687 427.677 133.757 L 427.677 117.257 L 421.167 119.697 ZM 464.381 133.837 L 464.381 173.497 L 470.891 173.497 L 470.891 152.927 C 470.891 143.677 473.701 138.567 482.511 138.567 C 488.581 138.567 491.391 141.747 491.391 148.117 L 491.391 173.497 L 497.831 173.497 L 497.831 147.667 C 497.831 137.457 492.941 133.097 483.471 133.097 C 478.441 133.097 473.561 135.087 470.971 139.237 L 470.601 139.237 L 469.631 133.837 L 464.381 133.837 ZM 513.142 153.587 C 513.142 144.197 516.622 138.567 524.692 138.567 C 532.752 138.567 536.382 144.197 536.382 153.587 C 536.382 162.987 532.752 168.837 524.762 168.837 C 516.702 168.837 513.142 162.987 513.142 153.587 Z M 543.112 153.587 C 543.112 140.497 535.572 133.097 524.842 133.097 C 513.442 133.097 506.412 140.497 506.412 153.587 C 506.412 166.767 514.112 174.237 524.612 174.237 C 535.942 174.237 543.112 166.767 543.112 153.587 ZM 558.43 117.257 L 551.92 119.777 L 551.92 173.497 L 558.43 173.497 L 558.43 117.257 ZM 574.041 153.587 C 574.041 144.197 577.521 138.567 585.591 138.567 C 593.651 138.567 597.281 144.197 597.281 153.587 C 597.281 162.987 593.651 168.837 585.661 168.837 C 577.601 168.837 574.041 162.987 574.041 153.587 Z M 604.011 153.587 C 604.011 140.497 596.471 133.097 585.741 133.097 C 574.341 133.097 567.311 140.497 567.311 153.587 C 567.311 166.767 575.011 174.237 585.511 174.237 C 596.841 174.237 604.011 166.767 604.011 153.587 ZM 623.99 186.297 C 617.48 186.297 614.23 184.157 614.23 180.007 C 614.23 175.197 616.96 172.827 622.51 172.827 L 629.32 172.827 C 632.87 172.827 635.24 173.197 636.5 173.937 C 637.68 174.677 638.28 176.087 638.28 178.237 C 638.28 183.637 633.54 186.297 623.99 186.297 Z M 625.77 154.777 C 620.29 154.777 617.56 152.037 617.56 146.557 C 617.56 140.787 620.29 137.827 625.7 137.827 C 631.1 137.827 633.84 140.717 633.84 146.487 C 633.84 151.967 631.17 154.777 625.77 154.777 Z M 624.07 191.257 C 637.68 191.257 644.49 186.747 644.49 177.637 C 644.49 170.537 639.53 166.907 631.54 166.907 L 624.81 166.907 C 620.96 166.907 618.96 165.877 618.96 163.877 C 618.96 162.027 620.15 160.397 622.59 159.067 C 623.33 159.217 624.36 159.287 625.7 159.287 C 634.28 159.287 640.27 154.777 640.27 146.557 C 640.27 143.527 639.46 140.937 637.91 138.867 L 643.09 138.867 L 645.01 133.837 L 631.32 133.837 C 629.77 133.317 627.99 133.097 625.92 133.097 C 616.89 133.097 611.12 137.537 611.12 146.787 C 611.12 151.367 613.49 156.107 618 157.957 C 614.82 159.877 613.19 162.177 613.19 164.917 C 613.19 167.427 614.37 169.357 616.67 170.467 C 610.9 171.867 608.01 175.127 608.01 180.227 C 608.01 188.077 614.82 191.257 624.07 191.257 ZM 645.078 133.837 L 661.068 173.647 L 658.998 178.897 C 657.288 183.187 656.108 184.597 653.078 186.007 L 655.068 191.257 C 660.328 189.187 662.838 186.447 665.658 178.977 L 682.748 133.837 L 675.718 133.837 L 667.648 156.327 C 666.168 160.397 664.838 164.767 664.248 167.207 L 663.948 167.207 C 663.358 163.947 662.098 160.397 660.618 156.407 L 652.038 133.837 L 645.078 133.837 Z" style="fill: rgb(255, 255, 255); white-space: pre;"></path></svg>
